<svg xmlns="http://www.w3.org/2000/svg" version="1.1" xmlns:xlink="http://www.w3.org/1999/xlink" xmlns:svgjs="http://svgjs.dev/svgjs" width="1000" height="1000" viewBox="0 0 1000 1000"><rect width="1000" height="1000" fill="#000000"></rect><g transform="matrix(0.7,0,0,0.7,149.57575757575756,282.1265587044535)"><svg viewBox="0 0 396 247" data-background-color="#111111" preserveAspectRatio="xMidYMid meet" height="623" width="1000" xmlns="http://www.w3.org/2000/svg" xmlns:xlink="http://www.w3.org/1999/xlink"><g id="tight-bounds" transform="matrix(1,0,0,1,0.2400000000000091,-0.09999999999999432)"><svg viewBox="0 0 395.52 247.2" height="247.2" width="395.52"><g><svg></svg></g><g><svg viewBox="0 0 395.52 247.2" height="247.2" width="395.52"><mask id="32f482f3-0808-40d3-9f16-54c14ef73629"><rect width="640" height="400" fill="white"></rect><g transform="matrix(1,0,0,1,69.77488885410719,37.08)"><svg viewBox="0 0 255.9702222917856 173.04" height="173.04" width="255.9702222917856"><g><svg viewBox="0 0 255.9702222917856 173.04" height="173.04" width="255.9702222917856"><g><svg viewBox="0 0 316.416 213.90232094101313" height="173.04" width="255.9702222917856"><g><svg viewBox="0 0 316.416 213.90232094101313" height="213.90232094101313" width="316.416"><g id="SvgjsG1033"><svg viewBox="0 0 316.416 213.90232094101313" height="213.90232094101313" width="316.416" id="SvgjsSvg1032"><g><svg viewBox="0 0 316.416 133.36148519819366" height="133.36148519819366" width="316.416"><g transform="matrix(1,0,0,1,0,0)"><svg width="316.416" viewBox="-1 -39 100.65 43" height="133.36148519819366" data-palette-color="#ffdc00"><path d="M17-35L17-35Q21.85-35 24.9-34.05 27.95-33.1 29.38-30.88 30.8-28.65 30.8-24.6L30.8-24.6Q30.8-22.4 30.18-20.6 29.55-18.8 28.05-17.68 26.55-16.55 23.95-16.25L23.95-16.25 23.95-15.95Q24.9-15.85 25.98-15.35 27.05-14.85 27.98-13.73 28.9-12.6 29.3-10.65L29.3-10.65 32.15 0 22.3 0 19.85-10.35Q19.5-11.95 18.75-12.48 18-13 16.55-13L16.55-13Q12.95-13.05 10.6-13.05 8.25-13.05 6.63-13.1 5-13.15 3.55-13.25L3.55-13.25 3.7-19.8 16.8-19.8Q18.6-19.8 19.58-20.15 20.55-20.5 20.95-21.43 21.35-22.35 21.35-24L21.35-24Q21.35-25.7 20.95-26.6 20.55-27.5 19.58-27.85 18.6-28.2 16.8-28.2L16.8-28.2Q11.85-28.2 8.43-28.15 5-28.1 3.75-28L3.75-28 3-34.5Q5.2-34.75 7.15-34.85 9.1-34.95 11.43-34.98 13.75-35 17-35ZM3-34.5L12.2-34.5 12.2 0 3 0 3-34.5ZM43.5-34.5L52.9-34.5 52.9 0 43.5 0 43.5-34.5ZM33.5-34.5L62.85-34.5 62.85-27.35 33.5-27.35 33.5-34.5ZM80.5-35L80.5-35Q85.34-35 88.4-34.05 91.45-33.1 92.87-30.88 94.3-28.65 94.3-24.6L94.3-24.6Q94.3-22.4 93.67-20.6 93.05-18.8 91.55-17.68 90.05-16.55 87.45-16.25L87.45-16.25 87.45-15.95Q88.4-15.85 89.47-15.35 90.55-14.85 91.47-13.73 92.4-12.6 92.8-10.65L92.8-10.65 95.65 0 85.8 0 83.34-10.35Q83-11.95 82.25-12.48 81.5-13 80.05-13L80.05-13Q76.45-13.05 74.09-13.05 71.75-13.05 70.12-13.1 68.5-13.15 67.05-13.25L67.05-13.25 67.2-19.8 80.3-19.8Q82.09-19.8 83.07-20.15 84.05-20.5 84.45-21.43 84.84-22.35 84.84-24L84.84-24Q84.84-25.7 84.45-26.6 84.05-27.5 83.07-27.85 82.09-28.2 80.3-28.2L80.3-28.2Q75.34-28.2 71.92-28.15 68.5-28.1 67.25-28L67.25-28 66.5-34.5Q68.7-34.75 70.65-34.85 72.59-34.95 74.92-34.98 77.25-35 80.5-35ZM66.5-34.5L75.7-34.5 75.7 0 66.5 0 66.5-34.5Z" opacity="1" transform="matrix(1,0,0,1,0,0)" fill="black" class="wordmark-text-0" id="SvgjsPath1031" stroke-width="7" stroke="black" stroke-linejoin="round"></path></svg></g></svg></g><g transform="matrix(1,0,0,1,3.5,159.5976901812343)"><svg viewBox="0 0 309.416 54.304630759778824" height="54.304630759778824" width="309.416"><g transform="matrix(1,0,0,1,0,0)"><svg width="309.416" viewBox="-2 -39.35 245.12 43.85" height="54.304630759778824" data-palette-color="#ffdc00"><path d="M7.85 0L2.2 0Q2 0 2-0.25L2-0.25 2.1-34.6Q2.1-34.8 2.3-34.8L2.3-34.8 12.4-34.8Q15.1-34.8 17.38-33.48 19.65-32.15 21-29.93 22.35-27.7 22.35-24.9L22.35-24.9Q22.35-23.05 21.8-21.58 21.25-20.1 20.5-19.07 19.75-18.05 19.15-17.55L19.15-17.55Q21.85-14.55 21.85-10.5L21.85-10.5 21.9-0.25Q21.9 0 21.65 0L21.65 0 16 0Q15.8 0 15.8-0.15L15.8-0.15 15.8-10.5Q15.8-12.3 14.53-13.63 13.25-14.95 11.4-14.95L11.4-14.95 8.1-14.95 8.05-0.25Q8.05 0 7.85 0L7.85 0ZM8.1-28.8L8.1-20.95 12.4-20.95Q13.95-20.95 15.15-22.1 16.35-23.25 16.35-24.9L16.35-24.9Q16.35-26.5 15.18-27.65 14-28.8 12.4-28.8L12.4-28.8 8.1-28.8ZM35.1 0.5L35.1 0.5Q32.4 0.5 30.17-0.88 27.95-2.25 26.6-4.53 25.25-6.8 25.25-9.55L25.25-9.55 25.3-25.4Q25.3-28.15 26.62-30.4 27.95-32.65 30.2-34 32.45-35.35 35.1-35.35L35.1-35.35Q37.8-35.35 40-34 42.2-32.65 43.52-30.4 44.85-28.15 44.85-25.4L44.85-25.4 44.9-9.55Q44.9-6.8 43.57-4.53 42.25-2.25 40.02-0.88 37.8 0.5 35.1 0.5ZM35.1-5.55L35.1-5.55Q36.6-5.55 37.72-6.78 38.85-8 38.85-9.55L38.85-9.55 38.8-25.4Q38.8-27.05 37.75-28.2 36.7-29.35 35.1-29.35L35.1-29.35Q33.55-29.35 32.45-28.23 31.35-27.1 31.35-25.4L31.35-25.4 31.35-9.55Q31.35-7.9 32.45-6.73 33.55-5.55 35.1-5.55ZM65.05 0L48.9 0Q48.7 0 48.7-0.25L48.7-0.25 48.75-34.55Q48.75-34.8 49-34.8L49-34.8 54.55-34.8Q54.8-34.8 54.8-34.55L54.8-34.55 54.75-6.15 65.05-6.15Q65.3-6.15 65.3-5.9L65.3-5.9 65.3-0.25Q65.3 0 65.05 0L65.05 0ZM84.89 0L68.74 0Q68.54 0 68.54-0.25L68.54-0.25 68.59-34.55Q68.59-34.8 68.84-34.8L68.84-34.8 74.39-34.8Q74.64-34.8 74.64-34.55L74.64-34.55 74.59-6.15 84.89-6.15Q85.14-6.15 85.14-5.9L85.14-5.9 85.14-0.25Q85.14 0 84.89 0L84.89 0ZM104.44 0L98.79 0Q98.59 0 98.59-0.25L98.59-0.25 98.59-28.75 92.09-28.75Q91.84-28.75 91.84-29L91.84-29 91.89-34.6Q91.89-34.8 92.09-34.8L92.09-34.8 111.09-34.8Q111.34-34.8 111.34-34.6L111.34-34.6 111.34-29Q111.34-28.75 111.14-28.75L111.14-28.75 104.59-28.75 104.64-0.25Q104.64 0 104.44 0L104.44 0ZM119.64 0L113.99 0Q113.79 0 113.79-0.25L113.79-0.25 113.84-34.6Q113.84-34.8 114.09-34.8L114.09-34.8 119.64-34.8Q119.89-34.8 119.89-34.6L119.89-34.6 119.84-21 127.34-21 127.34-34.6Q127.34-34.8 127.54-34.8L127.54-34.8 133.09-34.8Q133.34-34.8 133.34-34.6L133.34-34.6 133.44-0.25Q133.44 0 133.19 0L133.19 0 127.59 0Q127.34 0 127.34-0.25L127.34-0.25 127.34-14.95 119.84-14.95 119.84-0.25Q119.84 0 119.64 0L119.64 0ZM153.88 0L137.73 0Q137.53 0 137.53-0.25L137.53-0.25 137.58-34.6Q137.58-34.8 137.78-34.8L137.78-34.8 153.83-34.8Q154.03-34.8 154.03-34.55L154.03-34.55 154.03-28.95Q154.03-28.75 153.83-28.75L153.83-28.75 143.58-28.75 143.58-20.95 153.83-20.95Q154.03-20.95 154.03-20.75L154.03-20.75 154.08-15.1Q154.08-14.9 153.88-14.9L153.88-14.9 143.58-14.9 143.58-6.15 153.88-6.15Q154.08-6.15 154.08-5.9L154.08-5.9 154.08-0.2Q154.08 0 153.88 0L153.88 0ZM171.78 0L166.13 0Q165.93 0 165.93-0.25L165.93-0.25 166.03-34.6Q166.03-34.8 166.23-34.8L166.23-34.8 176.33-34.8Q179.03-34.8 181.3-33.48 183.58-32.15 184.93-29.93 186.28-27.7 186.28-24.9L186.28-24.9Q186.28-23.05 185.73-21.58 185.18-20.1 184.43-19.07 183.68-18.05 183.08-17.55L183.08-17.55Q185.78-14.55 185.78-10.5L185.78-10.5 185.83-0.25Q185.83 0 185.58 0L185.58 0 179.93 0Q179.73 0 179.73-0.15L179.73-0.15 179.73-10.5Q179.73-12.3 178.45-13.63 177.18-14.95 175.33-14.95L175.33-14.95 172.03-14.95 171.98-0.25Q171.98 0 171.78 0L171.78 0ZM172.03-28.8L172.03-20.95 176.33-20.95Q177.88-20.95 179.08-22.1 180.28-23.25 180.28-24.9L180.28-24.9Q180.28-26.5 179.1-27.65 177.93-28.8 176.33-28.8L176.33-28.8 172.03-28.8ZM195.93 0L190.28 0Q190.03 0 190.03-0.25L190.03-0.25 190.08-34.6Q190.08-34.8 190.28-34.8L190.28-34.8 195.88-34.8Q196.08-34.8 196.08-34.6L196.08-34.6 196.13-0.25Q196.13 0 195.93 0L195.93 0ZM206.37 0L200.77 0Q200.52 0 200.52-0.25L200.52-0.25 200.62-34.6Q200.62-34.8 200.82-34.8L200.82-34.8 216.82-34.8Q217.07-34.8 217.07-34.6L217.07-34.6 217.07-28.95Q217.07-28.75 216.87-28.75L216.87-28.75 206.62-28.75 206.62-21 216.87-21Q217.07-21 217.07-20.75L217.07-20.75 217.12-15.1Q217.12-14.9 216.87-14.9L216.87-14.9 206.62-14.9 206.62-0.25Q206.62 0 206.37 0L206.37 0ZM232.22 0L226.57 0Q226.37 0 226.37-0.25L226.37-0.25 226.37-28.75 219.87-28.75Q219.62-28.75 219.62-29L219.62-29 219.67-34.6Q219.67-34.8 219.87-34.8L219.87-34.8 238.87-34.8Q239.12-34.8 239.12-34.6L239.12-34.6 239.12-29Q239.12-28.75 238.92-28.75L238.92-28.75 232.37-28.75 232.42-0.25Q232.42 0 232.22 0L232.22 0Z" opacity="1" transform="matrix(1,0,0,1,0,0)" fill="black" class="slogan-text-1" id="SvgjsPath1030" stroke-width="7" stroke="black" stroke-linejoin="round"></path></svg></g></svg></g></svg></g></svg></g></svg></g></svg></g></svg></g></mask><g transform="matrix(1,0,0,1,69.77488885410719,37.08)"><svg viewBox="0 0 255.9702222917856 173.04" height="173.04" width="255.9702222917856"><g><svg viewBox="0 0 255.9702222917856 173.04" height="173.04" width="255.9702222917856"><g><svg viewBox="0 0 316.416 213.90232094101313" height="173.04" width="255.9702222917856"><g><svg viewBox="0 0 316.416 213.90232094101313" height="213.90232094101313" width="316.416"><g id="textblocktransform"><svg viewBox="0 0 316.416 213.90232094101313" height="213.90232094101313" width="316.416" id="textblock"><g><svg viewBox="0 0 316.416 133.36148519819366" height="133.36148519819366" width="316.416"><g transform="matrix(1,0,0,1,0,0)"><svg width="316.416" viewBox="-1 -39 100.65 43" height="133.36148519819366" data-palette-color="#ffdc00"><path d="M17-35L17-35Q21.85-35 24.9-34.05 27.95-33.1 29.38-30.88 30.8-28.65 30.8-24.6L30.8-24.6Q30.8-22.4 30.18-20.6 29.55-18.8 28.05-17.68 26.55-16.55 23.95-16.25L23.95-16.25 23.95-15.95Q24.9-15.85 25.98-15.35 27.05-14.85 27.98-13.73 28.9-12.6 29.3-10.65L29.3-10.65 32.15 0 22.3 0 19.85-10.35Q19.5-11.95 18.75-12.48 18-13 16.55-13L16.55-13Q12.95-13.05 10.6-13.05 8.25-13.05 6.63-13.1 5-13.15 3.55-13.25L3.55-13.25 3.7-19.8 16.8-19.8Q18.6-19.8 19.58-20.15 20.55-20.5 20.95-21.43 21.35-22.35 21.35-24L21.35-24Q21.35-25.7 20.95-26.6 20.55-27.5 19.58-27.85 18.6-28.2 16.8-28.2L16.8-28.2Q11.85-28.2 8.43-28.15 5-28.1 3.75-28L3.75-28 3-34.5Q5.2-34.75 7.15-34.85 9.1-34.95 11.43-34.98 13.75-35 17-35ZM3-34.5L12.2-34.5 12.2 0 3 0 3-34.5ZM43.5-34.5L52.9-34.5 52.9 0 43.5 0 43.5-34.5ZM33.5-34.5L62.85-34.5 62.85-27.35 33.5-27.35 33.5-34.5ZM80.5-35L80.5-35Q85.34-35 88.4-34.05 91.45-33.1 92.87-30.88 94.3-28.65 94.3-24.6L94.3-24.6Q94.3-22.4 93.67-20.6 93.05-18.8 91.55-17.68 90.05-16.55 87.45-16.25L87.45-16.25 87.45-15.95Q88.4-15.85 89.47-15.35 90.55-14.85 91.47-13.73 92.4-12.6 92.8-10.65L92.8-10.65 95.65 0 85.8 0 83.34-10.35Q83-11.95 82.25-12.48 81.5-13 80.05-13L80.05-13Q76.45-13.05 74.09-13.05 71.75-13.05 70.12-13.1 68.5-13.15 67.05-13.25L67.05-13.25 67.2-19.8 80.3-19.8Q82.09-19.8 83.07-20.15 84.05-20.5 84.45-21.43 84.84-22.35 84.84-24L84.84-24Q84.84-25.7 84.45-26.6 84.05-27.5 83.07-27.85 82.09-28.2 80.3-28.2L80.3-28.2Q75.34-28.2 71.92-28.15 68.5-28.1 67.25-28L67.25-28 66.5-34.5Q68.7-34.75 70.65-34.85 72.59-34.95 74.92-34.98 77.25-35 80.5-35ZM66.5-34.5L75.7-34.5 75.7 0 66.5 0 66.5-34.5Z" opacity="1" transform="matrix(1,0,0,1,0,0)" fill="#ffffff" class="wordmark-text-0" data-fill-palette-color="primary" id="text-0"></path></svg></g></svg></g><g transform="matrix(1,0,0,1,3.5,159.5976901812343)"><svg viewBox="0 0 309.416 54.304630759778824" height="54.304630759778824" width="309.416"><g transform="matrix(1,0,0,1,0,0)"><svg width="309.416" viewBox="-2 -39.35 245.12 43.85" height="54.304630759778824" data-palette-color="#ffdc00"><path d="M7.85 0L2.2 0Q2 0 2-0.25L2-0.25 2.1-34.6Q2.1-34.8 2.3-34.8L2.3-34.8 12.4-34.8Q15.1-34.8 17.38-33.48 19.65-32.15 21-29.93 22.35-27.7 22.35-24.9L22.35-24.9Q22.35-23.05 21.8-21.58 21.25-20.1 20.5-19.07 19.75-18.05 19.15-17.55L19.15-17.55Q21.85-14.55 21.85-10.5L21.85-10.5 21.9-0.25Q21.9 0 21.65 0L21.65 0 16 0Q15.8 0 15.8-0.15L15.8-0.15 15.8-10.5Q15.8-12.3 14.53-13.63 13.25-14.95 11.4-14.95L11.4-14.95 8.1-14.95 8.05-0.25Q8.05 0 7.85 0L7.85 0ZM8.1-28.8L8.1-20.95 12.4-20.95Q13.95-20.95 15.15-22.1 16.35-23.25 16.35-24.9L16.35-24.9Q16.35-26.5 15.18-27.65 14-28.8 12.4-28.8L12.4-28.8 8.1-28.8ZM35.1 0.5L35.1 0.5Q32.4 0.5 30.17-0.88 27.95-2.25 26.6-4.53 25.25-6.8 25.25-9.55L25.25-9.55 25.3-25.4Q25.3-28.15 26.62-30.4 27.95-32.65 30.2-34 32.45-35.35 35.1-35.35L35.1-35.35Q37.8-35.35 40-34 42.2-32.65 43.52-30.4 44.85-28.15 44.85-25.4L44.85-25.4 44.9-9.55Q44.9-6.8 43.57-4.53 42.25-2.25 40.02-0.88 37.8 0.5 35.1 0.5ZM35.1-5.55L35.1-5.55Q36.6-5.55 37.72-6.78 38.85-8 38.85-9.55L38.85-9.55 38.8-25.4Q38.8-27.05 37.75-28.2 36.7-29.35 35.1-29.35L35.1-29.35Q33.55-29.35 32.45-28.23 31.35-27.1 31.35-25.4L31.35-25.4 31.35-9.55Q31.35-7.9 32.45-6.73 33.55-5.55 35.1-5.55ZM65.05 0L48.9 0Q48.7 0 48.7-0.25L48.7-0.25 48.75-34.55Q48.75-34.8 49-34.8L49-34.8 54.55-34.8Q54.8-34.8 54.8-34.55L54.8-34.55 54.75-6.15 65.05-6.15Q65.3-6.15 65.3-5.9L65.3-5.9 65.3-0.25Q65.3 0 65.05 0L65.05 0ZM84.89 0L68.74 0Q68.54 0 68.54-0.25L68.54-0.25 68.59-34.55Q68.59-34.8 68.84-34.8L68.84-34.8 74.39-34.8Q74.64-34.8 74.64-34.55L74.64-34.55 74.59-6.15 84.89-6.15Q85.14-6.15 85.14-5.9L85.14-5.9 85.14-0.25Q85.14 0 84.89 0L84.89 0ZM104.44 0L98.79 0Q98.59 0 98.59-0.25L98.59-0.25 98.59-28.75 92.09-28.75Q91.84-28.75 91.84-29L91.84-29 91.89-34.6Q91.89-34.8 92.09-34.8L92.09-34.8 111.09-34.8Q111.34-34.8 111.34-34.6L111.34-34.6 111.34-29Q111.34-28.75 111.14-28.75L111.14-28.75 104.59-28.75 104.64-0.25Q104.64 0 104.44 0L104.44 0ZM119.64 0L113.99 0Q113.79 0 113.79-0.25L113.79-0.25 113.84-34.6Q113.84-34.8 114.09-34.8L114.09-34.8 119.64-34.8Q119.89-34.8 119.89-34.6L119.89-34.6 119.84-21 127.34-21 127.34-34.6Q127.34-34.8 127.54-34.8L127.54-34.8 133.09-34.8Q133.34-34.8 133.34-34.6L133.34-34.6 133.44-0.25Q133.44 0 133.19 0L133.19 0 127.59 0Q127.34 0 127.34-0.25L127.34-0.25 127.34-14.95 119.84-14.95 119.84-0.25Q119.84 0 119.64 0L119.64 0ZM153.88 0L137.73 0Q137.53 0 137.53-0.25L137.53-0.25 137.58-34.6Q137.58-34.8 137.78-34.8L137.78-34.8 153.83-34.8Q154.03-34.8 154.03-34.55L154.03-34.55 154.03-28.95Q154.03-28.75 153.83-28.75L153.83-28.75 143.58-28.75 143.58-20.95 153.83-20.95Q154.03-20.95 154.03-20.75L154.03-20.75 154.08-15.1Q154.08-14.9 153.88-14.9L153.88-14.9 143.58-14.9 143.58-6.15 153.88-6.15Q154.08-6.15 154.08-5.9L154.08-5.9 154.08-0.2Q154.08 0 153.88 0L153.88 0ZM171.78 0L166.13 0Q165.93 0 165.93-0.25L165.93-0.25 166.03-34.6Q166.03-34.8 166.23-34.8L166.23-34.8 176.33-34.8Q179.03-34.8 181.3-33.48 183.58-32.15 184.93-29.93 186.28-27.7 186.28-24.9L186.28-24.9Q186.28-23.05 185.73-21.58 185.18-20.1 184.43-19.07 183.68-18.05 183.08-17.55L183.08-17.55Q185.78-14.55 185.78-10.5L185.78-10.5 185.83-0.25Q185.83 0 185.58 0L185.58 0 179.93 0Q179.73 0 179.73-0.15L179.73-0.15 179.73-10.5Q179.73-12.3 178.45-13.63 177.18-14.95 175.33-14.95L175.33-14.95 172.03-14.95 171.98-0.25Q171.98 0 171.78 0L171.78 0ZM172.03-28.8L172.03-20.95 176.33-20.95Q177.88-20.95 179.08-22.1 180.28-23.25 180.28-24.9L180.28-24.9Q180.28-26.5 179.1-27.65 177.93-28.8 176.33-28.8L176.33-28.8 172.03-28.8ZM195.93 0L190.28 0Q190.03 0 190.03-0.25L190.03-0.25 190.08-34.6Q190.08-34.8 190.28-34.8L190.28-34.8 195.88-34.8Q196.08-34.8 196.08-34.6L196.08-34.6 196.13-0.25Q196.13 0 195.93 0L195.93 0ZM206.37 0L200.77 0Q200.52 0 200.52-0.25L200.52-0.25 200.62-34.6Q200.62-34.8 200.82-34.8L200.82-34.8 216.82-34.8Q217.07-34.8 217.07-34.6L217.07-34.6 217.07-28.95Q217.07-28.75 216.87-28.75L216.87-28.75 206.62-28.75 206.62-21 216.87-21Q217.07-21 217.07-20.75L217.07-20.75 217.12-15.1Q217.12-14.9 216.87-14.9L216.87-14.9 206.62-14.9 206.62-0.25Q206.62 0 206.37 0L206.37 0ZM232.22 0L226.57 0Q226.37 0 226.37-0.25L226.37-0.25 226.37-28.75 219.87-28.75Q219.62-28.75 219.62-29L219.62-29 219.67-34.6Q219.67-34.8 219.87-34.8L219.87-34.8 238.87-34.8Q239.12-34.8 239.12-34.6L239.12-34.6 239.12-29Q239.12-28.75 238.92-28.75L238.92-28.75 232.37-28.75 232.42-0.25Q232.42 0 232.22 0L232.22 0Z" opacity="1" transform="matrix(1,0,0,1,0,0)" fill="#ffffff" class="slogan-text-1" data-fill-palette-color="secondary" id="text-1"></path></svg></g></svg></g></svg></g></svg></g></svg></g></svg></g></svg></g><g mask="url(#32f482f3-0808-40d3-9f16-54c14ef73629)"><g transform="matrix(3.1384796549208334, 0, 0, 3.1384796549208334, 48.45938433576103, 1)"><svg xmlns="http://www.w3.org/2000/svg" xmlns:xlink="http://www.w3.org/1999/xlink" version="1.1" x="0" y="0" viewBox="1.858 10 95.142 78.12700000000001" enable-background="new 0 0 100 100" xml:space="preserve" height="78.12700000000001" width="95.142" class="icon-none" data-fill-palette-color="accent" id="none"><g fill="#ffffff" data-fill-palette-color="accent"><g fill="#ffffff" data-fill-palette-color="accent"><g fill="#ffffff" data-fill-palette-color="accent"><path d="M26.53 11.559L1.858 23.755l19.567-0.71L45.955 10 26.53 11.559zM24.179 17.851c-1.714 0.655-3.201 0.929-3.322 0.613-0.122-0.318 1.169-1.105 2.882-1.761 1.713-0.655 3.201-0.929 3.322-0.612C27.183 16.408 25.892 17.196 24.179 17.851z" fill="#ffffff" data-fill-palette-color="accent"></path></g><g fill="#ffffff" data-fill-palette-color="accent"><path d="M20.576 24.037L2.284 24.747l11.06 29.493 18.291 2.41L20.576 24.037zM9.602 34.523c-0.946 0.377-2.281-0.742-2.981-2.5-0.699-1.758-0.501-3.489 0.444-3.866 0.946-0.377 2.28 0.742 2.981 2.5C10.746 32.415 10.547 34.146 9.602 34.523zM16.066 51.562c-0.953 0.358-2.267-0.785-2.935-2.556-0.669-1.771-0.438-3.497 0.514-3.856 0.953-0.36 2.266 0.784 2.935 2.555C17.249 49.474 17.019 51.201 16.066 51.562zM20.46 34.79c-1.063 0.406-2.527-0.84-3.268-2.784-0.739-1.944-0.478-3.848 0.586-4.252 1.065-0.407 2.528 0.84 3.268 2.783C21.788 32.48 21.525 34.385 20.46 34.79zM26.575 53.223c-1.039 0.346-2.405-0.952-3.05-2.896-0.646-1.943-0.327-3.801 0.711-4.146 1.039-0.346 2.406 0.952 3.051 2.896C27.933 51.021 27.614 52.877 26.575 53.223z" fill="#ffffff" data-fill-palette-color="accent"></path></g><g fill="#ffffff" data-fill-palette-color="accent"><path d="M81.827 55.799L70.343 88.127l16.164-11.346L97 48 81.827 55.799zM77.253 79.153c-1.008 1.819-2.241 3.064-2.756 2.775-0.513-0.282-0.112-1.986 0.895-3.805 1.009-1.816 2.242-3.061 2.756-2.775S78.261 77.338 77.253 79.153zM85.334 67.231c-0.967 1.745-2.169 2.932-2.683 2.646-0.515-0.286-0.146-1.931 0.823-3.679 0.968-1.745 2.169-2.932 2.682-2.646C86.67 63.839 86.303 65.483 85.334 67.231zM90.095 58.442c-0.513-0.284-0.145-1.933 0.823-3.679 0.969-1.746 2.169-2.932 2.683-2.646 0.514 0.284 0.146 1.931-0.822 3.678C91.811 57.541 90.609 58.728 90.095 58.442z" fill="#ffffff" data-fill-palette-color="accent"></path></g><g fill="#ffffff" data-fill-palette-color="accent"><path d="M50.209 36.09l5.008-1.863L47.09 10.283 21.993 24.037l10.776 32.612 11.871-7.395 5.144-12.598L50.209 36.09zM35.627 50.458c-1.736 0-3.143-1.756-3.143-3.923 0-2.166 1.407-3.923 3.143-3.923s3.144 1.757 3.144 3.923C38.771 48.702 37.363 50.458 35.627 50.458zM44.467 23.328c-1.684 0-3.049-1.649-3.049-3.685 0-2.035 1.365-3.685 3.049-3.685 1.684 0 3.048 1.65 3.048 3.685C47.515 21.679 46.15 23.328 44.467 23.328z" fill="#ffffff" data-fill-palette-color="accent"></path><path d="M51.484 38.642L38.865 69.551l30.628 18.576 11.483-32.896L51.484 38.642zM47.278 71.113c-1.906 0-3.45-1.668-3.45-3.723 0-2.057 1.543-3.723 3.45-3.723s3.45 1.666 3.45 3.723C50.729 69.445 49.185 71.113 47.278 71.113zM50.539 48.698c0-0.025 0.004-0.051 0.004-0.075 0.035-2.163 1.628-3.907 3.588-3.907 0.66 0 1.277 0.201 1.809 0.546 1.066 0.691 1.784 1.969 1.784 3.437 0 2.199-1.608 3.981-3.593 3.981C52.147 52.68 50.539 50.897 50.539 48.698zM55.881 63.064c0-2.197 1.607-3.981 3.592-3.981s3.592 1.784 3.592 3.981c0 2.201-1.607 3.982-3.592 3.982S55.881 65.266 55.881 63.064zM65.285 81.652c-2.062 0-3.733-1.783-3.733-3.981 0-2.199 1.671-3.982 3.733-3.982 2.063 0 3.734 1.783 3.734 3.982C69.02 79.869 67.349 81.652 65.285 81.652zM72.233 62.699c-1.983 0-3.592-1.782-3.592-3.98 0-2.2 1.608-3.983 3.592-3.983s3.592 1.783 3.592 3.983C75.825 60.917 74.217 62.699 72.233 62.699z" fill="#ffffff" data-fill-palette-color="accent"></path><path d="M68.499 31.907L51.91 38.074l29.917 16.589L97 47.007 68.499 31.907zM64.642 41.568c-0.261 0.682-2.015 0.646-3.916-0.083-1.104-0.423-2.014-0.986-2.531-1.518l-0.438-1.036c0.013-0.035 0.033-0.065 0.054-0.096 0.387-0.581 2.056-0.514 3.861 0.178C63.573 39.741 64.902 40.885 64.642 41.568zM73.764 46.341c-0.262 0.683-2.016 0.646-3.917-0.082s-3.229-1.872-2.968-2.554c0.261-0.683 2.015-0.646 3.915 0.082C72.695 44.515 74.025 45.659 73.764 46.341zM74.33 37.74c-0.26 0.682-2.015 0.645-3.915-0.083-1.901-0.728-3.231-1.871-2.97-2.554 0.262-0.682 2.013-0.645 3.916 0.083C73.262 35.914 74.591 37.056 74.33 37.74zM82.555 51.02c-0.262 0.683-2.015 0.647-3.916-0.081-1.901-0.728-3.229-1.871-2.971-2.554 0.262-0.684 2.016-0.646 3.917 0.082S82.816 50.337 82.555 51.02zM82.602 42.229c-0.262 0.682-2.013 0.646-3.916-0.083-1.902-0.727-3.229-1.871-2.969-2.554 0.26-0.682 2.014-0.646 3.915 0.083C81.533 40.404 82.863 41.546 82.602 42.229zM87.239 46.495c-1.9-0.728-3.229-1.871-2.969-2.553 0.262-0.684 2.016-0.646 3.917 0.082 1.901 0.728 3.229 1.872 2.97 2.554C90.895 47.26 89.141 47.224 87.239 46.495z" fill="#ffffff" data-fill-palette-color="accent"></path></g></g></g></svg></g></g></svg></g><defs></defs></svg><rect width="395.52" height="247.2" fill="none" stroke="none" visibility="hidden"></rect></g></svg></g></svg>